<svg xmlns="http://www.w3.org/2000/svg" style="display: none;">
  
  <!-- Logo / Robot Icon -->
  <symbol id="logo" viewBox="0 0 24 24">
    <path fill="currentColor" d="M12 2c1.1 0 2 .9 2 2v1h1c1.1 0 2 .9 2 2v2h1c.55 0 1 .45 1 1v9c0 1.1-.9 2-2 2H7c-1.1 0-2-.9-2-2v-9c0-.55.45-1 1-1h1V7c0-1.1.9-2 2-2h1V4c0-1.1.9-2 2-2zm-2 11H8v2h2v-2zm6 0h-2v2h2v-2zm-3-3c-1.1 0-2 .9-2 2h4c0-1.1-.9-2-2-2z"/>
    <circle cx="10" cy="9" r="1" fill="currentColor"/>
    <circle cx="14" cy="9" r="1" fill="currentColor"/>
  </symbol>

  <!-- Home Icon -->
  <symbol id="home" viewBox="0 0 24 24">
    <path fill="none" stroke="currentColor" stroke-width="2" stroke-linecap="round" stroke-linejoin="round" d="M3 9l9-7 9 7v11a2 2 0 0 1-2 2H5a2 2 0 0 1-2-2z"/>
    <polyline fill="none" stroke="currentColor" stroke-width="2" stroke-linecap="round" stroke-linejoin="round" points="9 22 9 12 15 12 15 22"/>
  </symbol>

  <!-- Upload Icon -->
  <symbol id="upload" viewBox="0 0 24 24">
    <path fill="none" stroke="currentColor" stroke-width="2" stroke-linecap="round" stroke-linejoin="round" d="M21 15v4a2 2 0 0 1-2 2H5a2 2 0 0 1-2-2v-4"/>
    <polyline fill="none" stroke="currentColor" stroke-width="2" stroke-linecap="round" stroke-linejoin="round" points="17 8 12 3 7 8"/>
    <line fill="none" stroke="currentColor" stroke-width="2" stroke-linecap="round" stroke-linejoin="round" x1="12" y1="3" x2="12" y2="15"/>
  </symbol>

  <!-- User Icon -->
  <symbol id="user" viewBox="0 0 24 24">
    <path fill="none" stroke="currentColor" stroke-width="2" stroke-linecap="round" stroke-linejoin="round" d="M20 21v-2a4 4 0 0 0-4-4H8a4 4 0 0 0-4 4v2"/>
    <circle fill="none" stroke="currentColor" stroke-width="2" stroke-linecap="round" stroke-linejoin="round" cx="12" cy="7" r="4"/>
  </symbol>

  <!-- Search Icon -->
  <symbol id="search" viewBox="0 0 24 24">
    <circle fill="none" stroke="currentColor" stroke-width="2" stroke-linecap="round" stroke-linejoin="round" cx="11" cy="11" r="8"/>
    <path fill="none" stroke="currentColor" stroke-width="2" stroke-linecap="round" stroke-linejoin="round" d="m21 21-4.35-4.35"/>
  </symbol>

  <!-- Star Icon (Outline) -->
  <symbol id="star" viewBox="0 0 24 24">
    <polygon fill="currentColor" points="12 2 15.09 8.26 22 9.27 17 14.14 18.18 21.02 12 17.77 5.82 21.02 7 14.14 2 9.27 8.91 8.26 12 2"/>
  </symbol>

  <!-- Star Outline -->
  <symbol id="star-outline" viewBox="0 0 24 24">
    <polygon fill="none" stroke="currentColor" stroke-width="2" stroke-linecap="round" stroke-linejoin="round" points="12 2 15.09 8.26 22 9.27 17 14.14 18.18 21.02 12 17.77 5.82 21.02 7 14.14 2 9.27 8.91 8.26 12 2"/>
  </symbol>

  <!-- Calendar/Date Icon -->
  <symbol id="calendar" viewBox="0 0 24 24">
    <rect fill="none" stroke="currentColor" stroke-width="2" stroke-linecap="round" stroke-linejoin="round" x="3" y="4" width="18" height="18" rx="2" ry="2"/>
    <line fill="none" stroke="currentColor" stroke-width="2" stroke-linecap="round" stroke-linejoin="round" x1="16" y1="2" x2="16" y2="6"/>
    <line fill="none" stroke="currentColor" stroke-width="2" stroke-linecap="round" stroke-linejoin="round" x1="8" y1="2" x2="8" y2="6"/>
    <line fill="none" stroke="currentColor" stroke-width="2" stroke-linecap="round" stroke-linejoin="round" x1="3" y1="10" x2="21" y2="10"/>
  </symbol>

  <!-- Users/Team Icon -->
  <symbol id="users" viewBox="0 0 24 24">
    <path fill="none" stroke="currentColor" stroke-width="2" stroke-linecap="round" stroke-linejoin="round" d="M17 21v-2a4 4 0 0 0-4-4H5a4 4 0 0 0-4 4v2"/>
    <circle fill="none" stroke="currentColor" stroke-width="2" stroke-linecap="round" stroke-linejoin="round" cx="9" cy="7" r="4"/>
    <path fill="none" stroke="currentColor" stroke-width="2" stroke-linecap="round" stroke-linejoin="round" d="M23 21v-2a4 4 0 0 0-3-3.87"/>
    <path fill="none" stroke="currentColor" stroke-width="2" stroke-linecap="round" stroke-linejoin="round" d="M16 3.13a4 4 0 0 1 0 7.75"/>
  </symbol>

  <!-- Message/Feedback Icon -->
  <symbol id="message" viewBox="0 0 24 24">
    <path fill="none" stroke="currentColor" stroke-width="2" stroke-linecap="round" stroke-linejoin="round" d="M21 15a2 2 0 0 1-2 2H7l-4 4V5a2 2 0 0 1 2-2h14a2 2 0 0 1 2 2z"/>
  </symbol>

  <!-- Trophy/Award Icon -->
  <symbol id="trophy" viewBox="0 0 24 24">
    <path fill="currentColor" d="M6 3h12v5c0 2.21-1.79 4-4 4s-4-1.79-4-4V3m10 5c1.1 0 2-.9 2-2s-.9-2-2-2h-2v4h2M4 6c0 1.1.9 2 2 2h2V4H6c-1.1 0-2 .9-2 2m8 10a4 4 0 0 1 4-4v-1c0-2.76-2.24-5-5-5s-5 2.24-5 5v1a4 4 0 0 1 4 4v2H8v2h8v-2h-2v-2z"/>
  </symbol>

  <!-- Eye Icon (for password toggle) -->
  <symbol id="eye" viewBox="0 0 24 24">
    <path fill="none" stroke="currentColor" stroke-width="2" stroke-linecap="round" stroke-linejoin="round" d="M1 12s4-8 11-8 11 8 11 8-4 8-11 8-11-8-11-8z"/>
    <circle fill="none" stroke="currentColor" stroke-width="2" stroke-linecap="round" stroke-linejoin="round" cx="12" cy="12" r="3"/>
  </symbol>

  <!-- Eye Off Icon -->
  <symbol id="eye-off" viewBox="0 0 24 24">
    <path fill="none" stroke="currentColor" stroke-width="2" stroke-linecap="round" stroke-linejoin="round" d="M17.94 17.94A10.07 10.07 0 0 1 12 20c-7 0-11-8-11-8a18.45 18.45 0 0 1 5.06-5.94M9.9 4.24A9.12 9.12 0 0 1 12 4c7 0 11 8 11 8a18.5 18.5 0 0 1-2.16 3.19m-6.72-1.07a3 3 0 1 1-4.24-4.24"/>
    <line fill="none" stroke="currentColor" stroke-width="2" stroke-linecap="round" stroke-linejoin="round" x1="1" y1="1" x2="23" y2="23"/>
  </symbol>

  <!-- Chevron Down -->
  <symbol id="chevron-down" viewBox="0 0 24 24">
    <polyline fill="none" stroke="currentColor" stroke-width="2" stroke-linecap="round" stroke-linejoin="round" points="6 9 12 15 18 9"/>
  </symbol>

  <!-- Check Icon -->
  <symbol id="check" viewBox="0 0 24 24">
    <polyline fill="none" stroke="currentColor" stroke-width="2" stroke-linecap="round" stroke-linejoin="round" points="20 6 9 17 4 12"/>
  </symbol>

  <!-- Plus Icon -->
  <symbol id="plus" viewBox="0 0 24 24">
    <line fill="none" stroke="currentColor" stroke-width="2" stroke-linecap="round" stroke-linejoin="round" x1="12" y1="5" x2="12" y2="19"/>
    <line fill="none" stroke="currentColor" stroke-width="2" stroke-linecap="round" stroke-linejoin="round" x1="5" y1="12" x2="19" y2="12"/>
  </symbol>

  <!-- Arrow Left -->
  <symbol id="arrow-left" viewBox="0 0 24 24">
    <line fill="none" stroke="currentColor" stroke-width="2" stroke-linecap="round" stroke-linejoin="round" x1="19" y1="12" x2="5" y2="12"/>
    <polyline fill="none" stroke="currentColor" stroke-width="2" stroke-linecap="round" stroke-linejoin="round" points="12 19 5 12 12 5"/>
  </symbol>

  <!-- Image Icon -->
  <symbol id="image" viewBox="0 0 24 24">
    <rect fill="none" stroke="currentColor" stroke-width="2" stroke-linecap="round" stroke-linejoin="round" x="3" y="3" width="18" height="18" rx="2" ry="2"/>
    <circle fill="none" stroke="currentColor" stroke-width="2" stroke-linecap="round" stroke-linejoin="round" cx="8.5" cy="8.5" r="1.5"/>
    <polyline fill="none" stroke="currentColor" stroke-width="2" stroke-linecap="round" stroke-linejoin="round" points="21 15 16 10 5 21"/>
  </symbol>

  <!-- Log Out Icon -->
  <symbol id="log-out" viewBox="0 0 24 24">
    <path fill="none" stroke="currentColor" stroke-width="2" stroke-linecap="round" stroke-linejoin="round" d="M9 21H5a2 2 0 0 1-2-2V5a2 2 0 0 1 2-2h4"/>
    <polyline fill="none" stroke="currentColor" stroke-width="2" stroke-linecap="round" stroke-linejoin="round" points="16 17 21 12 16 7"/>
    <line fill="none" stroke="currentColor" stroke-width="2" stroke-linecap="round" stroke-linejoin="round" x1="21" y1="12" x2="9" y2="12"/>
  </symbol>

  <!-- Arrow Right -->
  <symbol id="arrow-right" viewBox="0 0 24 24">
    <line fill="none" stroke="currentColor" stroke-width="2" stroke-linecap="round" stroke-linejoin="round" x1="5" y1="12" x2="19" y2="12"/>
    <polyline fill="none" stroke="currentColor" stroke-width="2" stroke-linecap="round" stroke-linejoin="round" points="12 5 19 12 12 19"/>
  </symbol>

</svg>
